<svg width="86" height="64" viewBox="0 0 86 64" fill="none" xmlns="http://www.w3.org/2000/svg">
<g clip-path="url(#clip0_2420_8825)">
<path d="M64.5 21.1234C75.9975 21.1234 85.3701 30.1543 86 41.463C85.4491 18.2979 66.3896 0 43 0C19.6104 0 0 18.926 0 42.5617C0 54.4198 9.60781 64 21.5 64C33.3922 64 43 54.4198 43 42.5617C43 30.7037 52.6078 21.1234 64.5 21.1234Z" fill="#F15E4F"/>
<path d="M64.5 64.0001C76.3741 64.0001 86 54.4019 86 42.5618C86 30.7218 76.3741 21.1235 64.5 21.1235C52.6259 21.1235 43 30.7218 43 42.5618C43 54.4019 52.6259 64.0001 64.5 64.0001Z" fill="#B34439"/>
</g>
<defs>
<clipPath id="clip0_2420_8825">
<rect width="86" height="64" fill="white"/>
</clipPath>
</defs>
</svg>
